HIERARCHY
ROOT reference
{
  OFFSET -65.3212 -1.93545 -120.338
  CHANNELS 6 Xposition Yposition Zposition Zrotation Xrotation Yrotation
  JOINT Hips
  {
    OFFSET 0 78.7191 0
    CHANNELS 6 Xposition Yposition Zposition Zrotation Xrotation Yrotation
    JOINT Chest
    {
      OFFSET 0 8.7983 -4.7612
      CHANNELS 6 Xposition Yposition Zposition Zrotation Xrotation Yrotation
      JOINT Chest2
      {
        OFFSET 0 8.0291 0.4195
        CHANNELS 6 Xposition Yposition Zposition Zrotation Xrotation Yrotation
        JOINT Chest3
        {
          OFFSET 0 9.9351 -2.2114
          CHANNELS 6 Xposition Yposition Zposition Zrotation Xrotation Yrotation
          JOINT Neck
          {
            OFFSET 0 22.3885 -0.4656
            CHANNELS 6 Xposition Yposition Zposition Zrotation Xrotation Yrotation
            JOINT Head
            {
              OFFSET -0.0001 12.643 3.4389
              CHANNELS 6 Xposition Yposition Zposition Zrotation Xrotation Yrotation
              End Site
              {
                OFFSET 0.0001 17.6655 0.5274
              }
            }
          }
          JOINT LeftCollar
          {
            OFFSET 2.2603 21.606 7.4023
            CHANNELS 6 Xposition Yposition Zposition Zrotation Xrotation Yrotation
            JOINT LeftShoulder
            {
              OFFSET 13.5163 -1.1332 -5.0146
              CHANNELS 6 Xposition Yposition Zposition Zrotation Xrotation Yrotation
              JOINT LeftElbow
              {
                OFFSET -0.0995 -28.05 -0.2431
                CHANNELS 6 Xposition Yposition Zposition Zrotation Xrotation Yrotation
                JOINT LeftWrist
                {
                  OFFSET 0.0679 -23.3996 -0.1402
                  CHANNELS 6 Xposition Yposition Zposition Zrotation Xrotation Yrotation
                  JOINT LeftFinger1
                  {
                    OFFSET 0.7932 -9.069 2.5189
                    CHANNELS 6 Xposition Yposition Zposition Zrotation Xrotation Yrotation
                    JOINT LeftFinger11
                    {
                      OFFSET -0.8272 -3.3923 0.5977
                      CHANNELS 6 Xposition Yposition Zposition Zrotation Xrotation Yrotation
                      JOINT LeftFinger12
                      {
                        OFFSET -0.5649 -2.3158 0.4082
                        CHANNELS 6 Xposition Yposition Zposition Zrotation Xrotation Yrotation
                        End Site
                        {
                          OFFSET -0.4919 -1.6479 0.2673
                        }
                      }
                    }
                  }
                  JOINT LeftFinger2
                  {
                    OFFSET 0.9159 -9.2044 0.2193
                    CHANNELS 6 Xposition Yposition Zposition Zrotation Xrotation Yrotation
                    JOINT LeftFinger21
                    {
                      OFFSET 0.0117 -4.1944 -0.0248
                      CHANNELS 6 Xposition Yposition Zposition Zrotation Xrotation Yrotation
                      JOINT LeftFinger22
                      {
                        OFFSET 0.0071 -2.3249 -0.0142
                        CHANNELS 6 Xposition Yposition Zposition Zrotation Xrotation Yrotation
                        End Site
                        {
                          OFFSET -0.1475 -2.0882 0.0028
                        }
                      }
                    }
                  }
                  JOINT LeftFinger3
                  {
                    OFFSET 0.6113 -8.7231 -2.0637
                    CHANNELS 6 Xposition Yposition Zposition Zrotation Xrotation Yrotation
                    JOINT LeftFinger31
                    {
                      OFFSET -0.1927 -3.8059 -0.2383
                      CHANNELS 6 Xposition Yposition Zposition Zrotation Xrotation Yrotation
                      JOINT LeftFinger32
                      {
                        OFFSET -0.1091 -2.1688 -0.1362
                        CHANNELS 6 Xposition Yposition Zposition Zrotation Xrotation Yrotation
                        End Site
                        {
                          OFFSET -0.2358 -1.9176 -0.0906
                        }
                      }
                    }
                  }
                  JOINT LeftFinger4
                  {
                    OFFSET -0.6151 -8.0947 -3.5641
                    CHANNELS 6 Xposition Yposition Zposition Zrotation Xrotation Yrotation
                    JOINT LeftFinger41
                    {
                      OFFSET -0.4882 -2.341 -0.6462
                      CHANNELS 6 Xposition Yposition Zposition Zrotation Xrotation Yrotation
                      JOINT LeftFinger42
                      {
                        OFFSET -0.3575 -1.7167 -0.4742
                        CHANNELS 6 Xposition Yposition Zposition Zrotation Xrotation Yrotation
                        End Site
                        {
                          OFFSET -0.4187 -1.5237 -0.3496
                        }
                      }
                    }
                  }
                  JOINT LeftFinger0
                  {
                    OFFSET -1.42 -1.8761 1.4223
                    CHANNELS 6 Xposition Yposition Zposition Zrotation Xrotation Yrotation
                    JOINT LeftFinger01
                    {
                      OFFSET -1.1471 -3.4929 2.6334
                      CHANNELS 6 Xposition Yposition Zposition Zrotation Xrotation Yrotation
                      JOINT LeftFinger02
                      {
                        OFFSET -0.823 -2.3 1.6571
                        CHANNELS 6 Xposition Yposition Zposition Zrotation Xrotation Yrotation
                        End Site
                        {
                          OFFSET -0.5822 -1.6914 1.1582
                        }
                      }
                    }
                  }
                }
              }
            }
          }
          JOINT RightCollar
          {
            OFFSET -2.2603 21.606 7.4023
            CHANNELS 6 Xposition Yposition Zposition Zrotation Xrotation Yrotation
            JOINT RightShoulder
            {
              OFFSET -13.5187 -1.1334 -5.0155
              CHANNELS 6 Xposition Yposition Zposition Zrotation Xrotation Yrotation
              JOINT RightElbow
              {
                OFFSET 0.0994 -28.0499 -0.2431
                CHANNELS 6 Xposition Yposition Zposition Zrotation Xrotation Yrotation
                JOINT RightWrist
                {
                  OFFSET -0.0679 -23.3996 -0.1402
                  CHANNELS 6 Xposition Yposition Zposition Zrotation Xrotation Yrotation
                  JOINT RightFinger1
                  {
                    OFFSET -0.7932 -9.0691 2.5189
                    CHANNELS 6 Xposition Yposition Zposition Zrotation Xrotation Yrotation
                    JOINT RightFinger11
                    {
                      OFFSET 0.8272 -3.3923 0.5977
                      CHANNELS 6 Xposition Yposition Zposition Zrotation Xrotation Yrotation
                      JOINT RightFinger12
                      {
                        OFFSET 0.565 -2.3158 0.4082
                        CHANNELS 6 Xposition Yposition Zposition Zrotation Xrotation Yrotation
                        End Site
                        {
                          OFFSET 0.4919 -1.6479 0.2673
                        }
                      }
                    }
                  }
                  JOINT RightFinger2
                  {
                    OFFSET -0.916 -9.2044 0.2193
                    CHANNELS 6 Xposition Yposition Zposition Zrotation Xrotation Yrotation
                    JOINT RightFinger21
                    {
                      OFFSET -0.0117 -4.1944 -0.0248
                      CHANNELS 6 Xposition Yposition Zposition Zrotation Xrotation Yrotation
                      JOINT RightFinger22
                      {
                        OFFSET -0.0071 -2.3249 -0.0142
                        CHANNELS 6 Xposition Yposition Zposition Zrotation Xrotation Yrotation
                        End Site
                        {
                          OFFSET 0.1475 -2.0882 0.0028
                        }
                      }
                    }
                  }
                  JOINT RightFinger3
                  {
                    OFFSET -0.6113 -8.7231 -2.0637
                    CHANNELS 6 Xposition Yposition Zposition Zrotation Xrotation Yrotation
                    JOINT RightFinger31
                    {
                      OFFSET 0.1927 -3.8059 -0.2383
                      CHANNELS 6 Xposition Yposition Zposition Zrotation Xrotation Yrotation
                      JOINT RightFinger32
                      {
                        OFFSET 0.1091 -2.1688 -0.1362
                        CHANNELS 6 Xposition Yposition Zposition Zrotation Xrotation Yrotation
                        End Site
                        {
                          OFFSET 0.2358 -1.9176 -0.0906
                        }
                      }
                    }
                  }
                  JOINT RightFinger4
                  {
                    OFFSET 0.6151 -8.0947 -3.564
                    CHANNELS 6 Xposition Yposition Zposition Zrotation Xrotation Yrotation
                    JOINT RightFinger41
                    {
                      OFFSET 0.4882 -2.341 -0.6462
                      CHANNELS 6 Xposition Yposition Zposition Zrotation Xrotation Yrotation
                      JOINT RightFinger42
                      {
                        OFFSET 0.3574 -1.7166 -0.4742
                        CHANNELS 6 Xposition Yposition Zposition Zrotation Xrotation Yrotation
                        End Site
                        {
                          OFFSET 0.4187 -1.5237 -0.3496
                        }
                      }
                    }
                  }
                  JOINT RightFinger0
                  {
                    OFFSET 1.4199 -1.8761 1.4221
                    CHANNELS 6 Xposition Yposition Zposition Zrotation Xrotation Yrotation
                    JOINT RightFinger01
                    {
                      OFFSET 1.1472 -3.4929 2.6336
                      CHANNELS 6 Xposition Yposition Zposition Zrotation Xrotation Yrotation
                      JOINT RightFinger02
                      {
                        OFFSET 0.8229 -2.3 1.6571
                        CHANNELS 6 Xposition Yposition Zposition Zrotation Xrotation Yrotation
                        End Site
                        {
                          OFFSET 0.5822 -1.6914 1.1582
                        }
                      }
                    }
                  }
                }
              }
            }
          }
        }
      }
    }
    JOINT RightHip
    {
      OFFSET -9.412 3.9771 -0.7758
      CHANNELS 6 Xposition Yposition Zposition Zrotation Xrotation Yrotation
      JOINT RightKnee
      {
        OFFSET -0.7531 -40.938 0
        CHANNELS 6 Xposition Yposition Zposition Zrotation Xrotation Yrotation
        JOINT RightAnkle
        {
          OFFSET 0 -40.1986 0
          CHANNELS 6 Xposition Yposition Zposition Zrotation Xrotation Yrotation
          JOINT RightToe
          {
            OFFSET 0 -4.4182 9.239
            CHANNELS 6 Xposition Yposition Zposition Zrotation Xrotation Yrotation
            End Site
            {
              OFFSET 0 0 6.1981
            }
          }
        }
      }
    }
    JOINT LeftHip
    {
      OFFSET 9.4119 3.9773 -0.7758
      CHANNELS 6 Xposition Yposition Zposition Zrotation Xrotation Yrotation
      JOINT LeftKnee
      {
        OFFSET 0.7532 -40.9383 0
        CHANNELS 6 Xposition Yposition Zposition Zrotation Xrotation Yrotation
        JOINT LeftAnkle
        {
          OFFSET 0 -40.1986 0
          CHANNELS 6 Xposition Yposition Zposition Zrotation Xrotation Yrotation
          JOINT LeftToe
          {
            OFFSET 0 -4.4182 9.239
            CHANNELS 6 Xposition Yposition Zposition Zrotation Xrotation Yrotation
            End Site
            {
              OFFSET 0 0 6.1981
            }
          }
        }
      }
    }
  }
}
MOTION
Frames:	4
Frame Time:	0.0333333
464.956 -0.808891 -82.975 0 0 -0 0 78.7191 0 -4.97556 2.78846 -82.219 -1.42109e-014 8.7983 -4.7612 0.821456 1.21771 -1.01677 7.10543e-015 8.0291 0.4195 1.66495 2.42052 -2.0515 0 9.9351 -2.2114 1.66496 2.42053 -2.05151 0 22.3885 -0.4656 -0.10492 0.151227 -2.68057 -0.0001 12.643 3.4389 3.90019 1.27882 0.0168341 2.2603 21.606 7.4023 5.58605 0.347974 -8.49811 13.5163 -1.1332 -5.0146 -2.63771 15.462 24.2899 -0.0995 -28.05 -0.2431 -3.34686 -21.7235 38.8763 0.0679 -23.3996 -0.1402 -6.56608 17.4466 3.01505 0.7932 -9.069 2.5189 -0.108768 7.5612 -4.7919 -0.8272 -3.3923 0.5977 -0.233475 -2.93441 -1.23125 -0.5649 -2.3158 0.4082 1.1198 -0.695692 0.0666443 0.9159 -9.2044 0.2193 3.07615 -1.10599 -2.60522 0.0117 -4.1944 -0.0248 -0.2079 -1.1093 0.241693 0.0071 -2.3249 -0.0142 3.47832 -2.15889 0.407044 0.6113 -8.7231 -2.0637 4.48842 -2.95945 1.21113 -0.1927 -3.8059 -0.2383 -0.235434 -1.37597 0.49439 -0.1091 -2.1688 -0.1362 3.71649 -2.52646 0.57228 -0.6151 -8.0947 -3.5641 3.67148 -3.4258 1.97276 -0.4882 -2.341 -0.6462 -0.0735511 -2.15747 1.83134 -0.3575 -1.7167 -0.4742 3.46772 -2.31494 0.642923 -1.42 -1.8761 1.4223 7.01513 12.0475 -3.95757 -1.1471 -3.4929 2.6334 -2.77676 -0.173235 0.333433 -0.823 -2.3 1.6571 -0.16451 -0.218146 0.0448626 -2.2603 21.606 7.4023 -3.71922 0.0443861 1.33322 -13.5187 -1.1334 -5.0155 -8.00688 13.5775 -10.4959 0.0994 -28.0499 -0.2431 2.05418 -27.0491 -37.8241 -0.0679 -23.3996 -0.1402 12.2727 10.2025 9.96803 -0.7932 -9.0691 2.5189 7.4732 9.19386 4.2256 0.8272 -3.3923 0.5977 -0.0399704 -0.33639 0.401379 0.565 -2.3158 0.4082 4.07281 1.38902 -0.115051 -0.916 -9.2044 0.2193 2.24295 1.4535 2.96232 -0.0117 -4.1944 -0.0248 2.45066 0.834703 0.0404895 -0.0071 -2.3249 -0.0142 1.43591 0.488913 0.0279066 -0.6113 -8.7231 -2.0637 0.143133 0.156605 -0.479792 0.1927 -3.8059 -0.2383 2.04449 0.789826 0.101121 0.1091 -2.1688 -0.1362 1.02996 0.397281 0.0545325 0.6151 -8.0947 -3.564 0.801146 -0.552066 -1.17919 0.4882 -2.341 -0.6462 0.0038278 -0.0374078 -0.0981303 0.3574 -1.7166 -0.4742 1.32292 0.494863 0.106606 1.4199 -1.8761 1.4221 -5.34722 15.4559 6.30345 1.1472 -3.4929 2.6336 0.777089 -0.690827 -0.806782 0.8229 -2.3 1.6571 -1.0602 2.39932 0.776228 -9.412 3.9771 -0.7758 3.03186 7.23323 10.1039 -0.7531 -40.938 0 0.342691 3.40835 -0.692439 -2.84217e-014 -40.1986 5.68434e-014 2.79342 -7.04042 -7.83923 0 -4.4182 9.239 0.13348 0.916685 -0.0537553 9.4119 3.9773 -0.7758 1.20542 -1.59967 -7.31232 0.7532 -40.9383 0 -0.0670674 17.1371 0.0202538 0 -40.1986 0 1.51436 -10.7464 -4.63448 0 -4.4182 9.239 -0.000142934 0.00100418 -2.06971e-005 
464.751 -0.816833 -82.6404 0 0 -0 0 78.7191 0 -5.04309 2.68716 -82.0123 0 8.7983 -4.7612 0.815674 1.20724 -1.01983 -7.10543e-015 8.0291 0.4195 1.65327 2.39966 -2.05739 -7.10543e-015 9.9351 -2.2114 1.65327 2.39966 -2.05739 7.10543e-015 22.3885 -0.4656 -0.107825 0.493894 -2.74294 -0.0001 12.643 3.4389 3.71695 1.22475 -0.220324 2.2603 21.606 7.4023 5.3073 0.393531 -8.31258 13.5163 -1.1332 -5.0146 -2.55761 15.7232 23.8667 -0.0995 -28.05 -0.2431 -3.1721 -21.5478 39.4558 0.0679 -23.3996 -0.1402 -6.77104 17.5656 3.35545 0.7932 -9.069 2.5189 -0.14009 7.63633 -4.77748 -0.8272 -3.3923 0.5977 -0.233345 -2.93301 -1.23054 -0.5649 -2.3158 0.4082 1.1024 -0.684911 0.0655432 0.9159 -9.2044 0.2193 2.9727 -1.06427 -2.64663 0.0117 -4.1944 -0.0248 -0.207062 -1.10185 0.240309 0.0071 -2.3249 -0.0142 3.42109 -2.12403 0.399314 0.6113 -8.7231 -2.0637 4.35023 -2.95486 1.20027 -0.1927 -3.8059 -0.2383 -0.233532 -1.36375 0.490423 -0.1091 -2.1688 -0.1362 3.64805 -2.48087 0.560403 -0.6151 -8.0947 -3.5641 3.51986 -3.46492 1.98568 -0.4882 -2.341 -0.6462 -0.0736239 -2.13655 1.81413 -0.3575 -1.7167 -0.4742 3.40881 -2.27648 0.630995 -1.42 -1.8761 1.4223 7.03741 12.1755 -3.92575 -1.1471 -3.4929 2.6334 -2.77478 -0.173547 0.333366 -0.823 -2.3 1.6571 -0.144039 -0.191025 0.0393238 -2.2603 21.606 7.4023 -3.99992 0.011749 1.5089 -13.5187 -1.1334 -5.0155 -8.17032 13.6049 -9.64896 0.0994 -28.0499 -0.2431 2.54754 -28.1792 -36.5111 -0.0679 -23.3996 -0.1402 12.1718 10.5867 10.1445 -0.7932 -9.0691 2.5189 7.52085 9.25938 4.20387 0.8272 -3.3923 0.5977 -0.0392436 -0.338131 0.399413 0.565 -2.3158 0.4082 4.0922 1.39566 -0.115839 -0.916 -9.2044 0.2193 2.35528 1.47152 2.99179 -0.0117 -4.1944 -0.0248 2.46782 0.840598 0.040645 -0.0071 -2.3249 -0.0142 1.49107 0.507722 0.0289229 -0.6113 -8.7231 -2.0637 0.279567 0.127654 -0.486486 0.1927 -3.8059 -0.2383 2.07704 0.802455 0.102617 0.1091 -2.1688 -0.1362 1.09677 0.423062 0.0579653 0.6151 -8.0947 -3.564 0.938584 -0.623703 -1.20776 0.4882 -2.341 -0.6462 0.00529838 -0.0310646 -0.0833064 0.3574 -1.7166 -0.4742 1.38037 0.5164 0.111132 1.4199 -1.8761 1.4221 -5.34467 15.5893 6.27744 1.1472 -3.4929 2.6336 0.776474 -0.691311 -0.805988 0.8229 -2.3 1.6571 -1.07379 2.42954 0.786311 -9.412 3.9771 -0.7758 2.76759 7.63101 10.6462 -0.7531 -40.938 5.68434e-014 0.329001 3.22274 -0.669292 2.84217e-014 -40.1986 -5.68434e-014 2.89513 -7.25372 -8.62349 0 -4.4182 9.239 0.132855 0.908828 -0.0533386 9.4119 3.9773 -0.7758 0.860049 -1.28229 -7.77052 0.7532 -40.9383 0 -0.0613002 16.9714 0.0436099 -1.42109e-014 -40.1986 0 1.7582 -10.7783 -4.27992 -1.42109e-014 -4.4182 9.239 -9.13535e-005 0.000463324 -1.70228e-005 
464.511 -0.83036 -82.2562 0 0 -0 0 78.7191 0 -5.18629 2.55318 -81.749 1.42109e-014 8.7983 -4.7612 0.811025 1.2322 -1.03456 0 8.0291 0.4195 1.64474 2.44944 -2.08732 0 9.9351 -2.2114 1.64474 2.44943 -2.08732 7.10543e-015 22.3885 -0.4656 -0.111494 0.678506 -2.82982 -0.0001 12.643 3.4389 3.57726 1.29032 -0.434483 2.2603 21.606 7.4023 4.92622 0.44497 -8.15896 13.5163 -1.1332 -5.0146 -2.08924 15.7469 23.3141 -0.0995 -28.05 -0.2431 -2.96733 -21.3479 40.1496 0.0679 -23.3996 -0.1402 -6.99992 17.6075 4.14242 0.7932 -9.069 2.5189 -0.159941 7.6957 -4.76783 -0.8272 -3.3923 0.5977 -0.23307 -2.93163 -1.22978 -0.5649 -2.3158 0.4082 1.08502 -0.674137 0.064421 0.9159 -9.2044 0.2193 2.89501 -1.03648 -2.68086 0.0117 -4.1944 -0.0248 -0.205391 -1.09456 0.238914 0.0071 -2.3249 -0.0142 3.38558 -2.10205 0.394562 0.6113 -8.7231 -2.0637 4.24362 -2.95857 1.19495 -0.1927 -3.8059 -0.2383 -0.23203 -1.35146 0.486433 -0.1091 -2.1688 -0.1362 3.59801 -2.44688 0.551835 -0.6151 -8.0947 -3.5641 3.40031 -3.50479 2.00201 -0.4882 -2.341 -0.6462 -0.0734895 -2.11567 1.79686 -0.3575 -1.7167 -0.4742 3.37225 -2.25228 0.623542 -1.42 -1.8761 1.4223 7.05661 12.2853 -3.89849 -1.1471 -3.4929 2.6334 -2.77288 -0.174158 0.333323 -0.823 -2.3 1.6571 -0.123606 -0.163905 0.033751 -2.2603 21.606 7.4023 -4.30872 -0.0263585 1.81285 -13.5187 -1.1334 -5.0155 -8.40693 13.7382 -8.87404 0.0994 -28.0499 -0.2431 2.74814 -29.5747 -35.9294 -0.0679 -23.3996 -0.1402 12.0731 10.7221 10.4952 -0.7932 -9.0691 2.5189 7.55381 9.31239 4.18899 0.8272 -3.3923 0.5977 -0.0385337 -0.339909 0.397474 0.565 -2.3158 0.4082 4.11162 1.40231 -0.116661 -0.916 -9.2044 0.2193 2.43904 1.48164 3.01741 -0.0117 -4.1944 -0.0248 2.48499 0.846511 0.0407781 -0.0071 -2.3249 -0.0142 1.54626 0.526521 0.0298943 -0.6113 -8.7231 -2.0637 0.383196 0.0978919 -0.494478 0.1927 -3.8059 -0.2383 2.10962 0.815073 0.10405 0.1091 -2.1688 -0.1362 1.16363 0.448839 0.0613952 0.6151 -8.0947 -3.564 1.04465 -0.689049 -1.23601 0.4882 -2.341 -0.6462 0.00700593 -0.0246573 -0.0685371 0.3574 -1.7166 -0.4742 1.43786 0.537909 0.115653 1.4199 -1.8761 1.4221 -5.34407 15.7025 6.25958 1.1472 -3.4929 2.6336 0.775733 -0.691347 -0.80512 0.8229 -2.3 1.6571 -1.08739 2.45975 0.796426 -9.412 3.9771 -0.7758 2.47054 8.09291 11.1135 -0.7531 -40.938 -5.68434e-014 0.319024 3.1017 -0.647098 2.84217e-014 -40.1986 5.68434e-014 3.01208 -7.51745 -9.28744 -1.42109e-014 -4.4182 9.239 0.132233 0.900974 -0.0529726 9.4119 3.9773 -0.7758 0.462752 -0.861493 -8.30519 0.7532 -40.9383 5.68434e-014 -0.055519 16.8068 0.0680662 1.42109e-014 -40.1986 -5.68434e-014 2.03663 -10.8249 -3.90756 -1.42109e-014 -4.4182 9.239 -2.4878e-005 -0.000121349 -2.7238e-005 
464.236 -0.843094 -81.8028 0 0 -0 0 78.7191 0 -5.43118 2.33644 -81.5021 0 8.7983 -4.7612 0.792216 1.25268 -1.08403 7.10543e-015 8.0291 0.4195 1.60858 2.49003 -2.18576 -7.10543e-015 9.9351 -2.2114 1.60858 2.49003 -2.18578 0 22.3885 -0.4656 -0.109867 1.11281 -2.77151 -0.0001 12.643 3.4389 3.48486 1.38871 -0.584676 2.2603 21.606 7.4023 4.29779 0.471446 -8.00349 13.5163 -1.1332 -5.0146 -1.20764 15.9015 22.4972 -0.0995 -28.05 -0.2431 -2.74075 -21.2715 40.9207 0.0679 -23.3996 -0.1402 -6.94592 17.5166 4.80073 0.7932 -9.069 2.5189 -0.166644 7.73568 -4.76389 -0.8272 -3.3923 0.5977 -0.232814 -2.93024 -1.22905 -0.5649 -2.3158 0.4082 1.06756 -0.663371 0.0632945 0.9159 -9.2044 0.2193 2.83937 -1.02022 -2.70889 0.0117 -4.1944 -0.0248 -0.204075 -1.08719 0.237509 0.0071 -2.3249 -0.0142 3.35005 -2.0801 0.38982 0.6113 -8.7231 -2.0637 4.16414 -2.96876 1.19385 -0.1927 -3.8059 -0.2383 -0.230222 -1.3392 0.482453 -0.1091 -2.1688 -0.1362 3.56936 -2.42768 0.546803 -0.6151 -8.0947 -3.5641 3.30857 -3.54436 2.02051 -0.4882 -2.341 -0.6462 -0.0729649 -2.10874 1.79222 -0.3575 -1.7167 -0.4742 3.33571 -2.22806 0.6161 -1.42 -1.8761 1.4223 7.07539 12.3768 -3.88217 -1.1471 -3.4929 2.6334 -2.77098 -0.174668 0.333284 -0.823 -2.3 1.6571 -0.103121 -0.136764 0.0281787 -2.2603 21.606 7.4023 -4.69882 -0.0741494 2.20836 -13.5187 -1.1334 -5.0155 -8.72549 13.7578 -8.07926 0.0994 -28.0499 -0.2431 3.04486 -30.5049 -35.2227 -0.0679 -23.3996 -0.1402 12.3737 9.72283 9.71647 -0.7932 -9.0691 2.5189 7.56961 9.34966 4.18195 0.8272 -3.3923 0.5977 -0.037939 -0.341719 0.395479 0.565 -2.3158 0.4082 4.13101 1.40895 -0.11747 -0.916 -9.2044 0.2193 2.49848 1.48541 3.03925 -0.0117 -4.1944 -0.0248 2.50217 0.852395 0.0409577 -0.0071 -2.3249 -0.0142 1.56801 0.533802 0.0302282 -0.6113 -8.7231 -2.0637 0.458824 0.0682103 -0.503517 0.1927 -3.8059 -0.2383 2.12245 0.819985 0.104577 0.1091 -2.1688 -0.1362 1.1958 0.461687 0.062773 0.6151 -8.0947 -3.564 1.12372 -0.747932 -1.2636 0.4882 -2.341 -0.6462 0.0076775 -0.0222045 -0.0627413 0.3574 -1.7166 -0.4742 1.46553 0.548663 0.117553 1.4199 -1.8761 1.4221 -5.34481 15.7978 6.24785 1.1472 -3.4929 2.6336 0.775063 -0.691576 -0.804272 0.8229 -2.3 1.6571 -1.10098 2.48996 0.806524 -9.412 3.9771 -0.7758 2.0729 8.64762 11.5194 -0.7531 -40.938 0 0.315935 3.06674 -0.6168 -1.42109e-014 -40.1986 -5.68434e-014 3.1594 -7.84907 -9.86167 1.42109e-014 -4.4182 9.239 0.131608 0.893131 -0.0525163 9.4119 3.9773 -0.7758 -0.0218406 -0.228501 -8.78323 0.7532 -40.9383 0 -0.0502301 16.4964 0.095342 0 -40.1986 5.68434e-014 2.35983 -10.8147 -3.60779 1.42109e-014 -4.4182 9.239 2.95294e-005 -0.000672045 5.31898e-007 
